<?xml version="1.0" standalone="no"?><!DOCTYPE svg PUBLIC "-//W3C//DTD SVG 1.1//EN" "http://www.w3.org/Graphics/SVG/1.1/DTD/svg11.dtd"><svg class="icon" width="200px" height="200.00px" viewBox="0 0 1024 1024" version="1.1" xmlns="http://www.w3.org/2000/svg"><path d="M956.536471 1024H68.668235C30.117647 1024 0 993.882353 0 956.536471V68.668235C0 30.117647 30.117647 0 68.668235 0h887.868236C993.882353 0 1024 30.117647 1024 68.668235v887.868236c0 37.345882-30.117647 67.463529-67.463529 67.463529z" fill="#40BA49" /><path d="M395.143529 613.195294c-13.251765 7.228235-30.117647 1.204706-38.550588-12.047059l-2.409412-3.614117-78.305882-172.272942c-1.204706-1.204706-1.204706-3.614118-1.204706-6.023529 0-3.614118 1.204706-7.228235 3.614118-9.637647 2.409412-2.409412 6.023529-4.818824 9.637647-3.614118 3.614118 0 6.023529 1.204706 8.432941 2.409412l92.762353 66.258824c10.842353 7.228235 25.298824 9.637647 38.550588 4.818823l436.10353-193.957647c-78.305882-91.557647-207.209412-151.792941-352.978824-151.792941C272.263529 133.722353 79.510588 295.152941 79.510588 493.929412c0 108.423529 57.825882 206.004706 149.38353 272.263529 7.228235 4.818824 12.047059 14.456471 12.047058 22.889412 0 3.614118 0 6.023529-1.204705 9.637647l-19.275295 72.282353c-1.204706 3.614118-2.409412 7.228235-2.409411 10.842353 0 8.432941 6.023529 14.456471 14.45647 14.45647 2.409412 0 6.023529-1.204706 8.432941-2.409411l93.967059-54.211765c10.842353-7.228235 24.094118-8.432941 36.141177-4.818824 45.778824 13.251765 92.762353 19.275294 140.950588 19.275295 238.531765 0 431.284706-161.430588 431.284706-359.002353 0-59.030588-16.865882-116.856471-49.392941-166.249412L397.552941 611.990588l-2.409412 1.204706z m0 0" fill="#FFFFFF" /></svg>