<?xml version="1.0" standalone="no"?><!DOCTYPE svg PUBLIC "-//W3C//DTD SVG 1.1//EN" "http://www.w3.org/Graphics/SVG/1.1/DTD/svg11.dtd"><svg t="1566362734104" class="icon" viewBox="0 0 1024 1024" version="1.1" xmlns="http://www.w3.org/2000/svg" p-id="5596" xmlns:xlink="http://www.w3.org/1999/xlink" width="200" height="200"><defs><style type="text/css"></style></defs><path d="M512.032 879.808c169.504 0 319.872-59.136 413.056-150.368l-83.936 0.384c-79.392 66.816-195.456 108.864-327.04 108.864-245.376 0-436.96-146.24-436.96-326.656 0-208.096 191.552-326.656 436.96-326.656 15.616 0.032 28.096 7.232 18.72 20.736-50.976 61.376-196.16 258.944-222.624 301.728-52.288 84.384-51.008 188.32 76.96 195.584h538.176c27.52 0 34.464-12.864 44.416-26.336A274.688 274.688 0 0 0 1024.064 512c-0.128-155.072-109.216-271.296-269.792-328.416l-24.832 37.12c133.408 49.216 221.664 148.672 221.664 291.328 0 24.736-3.616 48.928-10.496 72.032-5.952 20.192-17.6 37.184-39.712 37.184H471.328c-55.008 0-33.76-56.736-13.344-84.256 29.536-52.992 191.424-273.632 230.4-314.752 9.92-15.072 37.792-46.272-0.608-58.24a763.776 763.776 0 0 0-175.712-19.84C229.28 144.16 0.16 289.376 0 512c-0.128 224.736 229.28 367.808 512.032 367.808z" fill="#CDA95F" p-id="5597"></path></svg>