<?xml version="1.0" standalone="no"?><!DOCTYPE svg PUBLIC "-//W3C//DTD SVG 1.1//EN" "http://www.w3.org/Graphics/SVG/1.1/DTD/svg11.dtd"><svg t="1566361741788" class="icon" viewBox="0 0 1024 1024" version="1.1" xmlns="http://www.w3.org/2000/svg" p-id="911" xmlns:xlink="http://www.w3.org/1999/xlink" width="200" height="200"><defs><style type="text/css"></style></defs><path d="M511.2 62.2C263 62.2 61.7 263.5 61.7 511.7S263 961.2 511.2 961.2 960.7 760 960.7 511.7 759.5 62.2 511.2 62.2z m0 851.6c-222.1 0-402.1-180-402.1-402.1s180-402.1 402.1-402.1 402.1 180 402.1 402.1-180 402.1-402.1 402.1z" p-id="912" fill="#515151"></path><path d="M511.2 962.2c-60.8 0-119.8-11.9-175.3-35.4-53.6-22.7-101.8-55.2-143.2-96.5-41.4-41.4-73.9-89.5-96.5-143.2-23.5-55.5-35.4-114.5-35.4-175.3S72.7 392 96.2 336.4c22.7-53.6 55.2-101.8 96.5-143.2s89.5-73.9 143.2-96.5c55.5-23.5 114.5-35.4 175.3-35.4 60.8 0 119.8 11.9 175.3 35.4 53.6 22.7 101.8 55.2 143.2 96.5 41.4 41.4 73.9 89.5 96.5 143.2 23.5 55.5 35.4 114.5 35.4 175.4s-11.9 119.8-35.4 175.3c-22.7 53.6-55.2 101.8-96.5 143.2-41.4 41.4-89.5 73.9-143.2 96.5-55.5 23.5-114.5 35.4-175.3 35.4z m0-899c-60.5 0-119.3 11.9-174.6 35.2-53.4 22.6-101.4 54.9-142.6 96.1s-73.4 89.2-96 142.6c-23.4 55.3-35.2 114-35.2 174.6 0 60.5 11.9 119.3 35.2 174.6 22.6 53.4 54.9 101.4 96.1 142.6s89.2 73.5 142.6 96.1c55.3 23.4 114 35.2 174.6 35.2s119.3-11.9 174.6-35.2c53.4-22.6 101.4-54.9 142.6-96.1s73.5-89.2 96.1-142.6c23.4-55.3 35.2-114 35.2-174.6 0-60.5-11.9-119.3-35.2-174.6-22.6-53.4-54.9-101.4-96.1-142.6S739.3 121 685.9 98.4c-55.4-23.3-114.1-35.2-174.7-35.2z m0 851.6c-54.4 0-107.2-10.7-156.9-31.7-48-20.3-91.1-49.4-128.1-86.4-37-37-66.1-80.1-86.4-128.1-21-49.7-31.7-102.5-31.7-156.9 0-54.4 10.7-107.2 31.7-156.9 20.3-48 49.4-91.1 86.4-128.1 37-37 80.1-66.1 128.1-86.4 49.7-21 102.5-31.7 156.9-31.7s107.2 10.7 156.9 31.7c48 20.3 91.1 49.4 128.1 86.4 37 37 66.1 80.1 86.4 128.1 21 49.7 31.7 102.5 31.7 156.9 0 54.4-10.7 107.2-31.7 156.9-20.3 48-49.4 91.1-86.4 128.1s-80.1 66.1-128.1 86.4c-49.7 21-102.5 31.7-156.9 31.7z m0-804.2c-54.1 0-106.7 10.6-156.1 31.5-47.8 20.2-90.7 49.1-127.5 86-36.8 36.8-65.8 79.7-86 127.5-20.9 49.4-31.5 102-31.5 156.1s10.6 106.7 31.5 156.1c20.2 47.8 49.1 90.7 86 127.5 36.8 36.8 79.7 65.8 127.5 86 49.4 20.9 102 31.5 156.1 31.5 54.1 0 106.7-10.6 156.1-31.5 47.8-20.2 90.7-49.1 127.5-86s65.8-79.7 86-127.5c20.9-49.4 31.5-102 31.5-156.1S901.7 405 880.8 355.6c-20.2-47.8-49.1-90.7-86-127.5-36.8-36.8-79.7-65.8-127.5-86-49.4-20.9-101.9-31.5-156.1-31.5z" p-id="913" fill="#515151"></path><path d="M512.2 513.4l-55.7-32.2 0.1-0.7 53.6-371.1 2 0.1v403.9z m-53.5-33.2l51.5 29.8V123.5l-51.5 356.7z" p-id="914" fill="#515151"></path><path d="M511.2 109.6v402.1l53.7-30.7z" p-id="915" fill="#515151"></path><path d="M510.2 513.4V109.6l2-0.1 53.8 372-55.8 31.9z m2-389.9V510l51.6-29.5-51.6-357z" p-id="916" fill="#515151"></path><path d="M858.9 713.6L509.2 511.7l55.7-31.9 0.5 0.4L860.1 712l-1.2 1.6zM513.2 511.7l334.6 193.2-283-222.7-51.6 29.5z" p-id="917" fill="#515151"></path><path d="M859.4 712.7l-348.2-201-0.2 61.8z" p-id="918" fill="#515151"></path><path d="M859.1 713.7L510 574.2l0.2-64.2 349.7 201.9-0.8 1.8zM512 572.9l334.8 133.8-334.6-193.3-0.2 59.5z" p-id="919" fill="#515151"></path><path d="M511 573.5l0.2-61.8-348.2 201z" p-id="920" fill="#515151"></path><path d="M163.5 713.6l-1.1-1.7 295.1-232.4 55.7 32.2-349.7 201.9zM457.7 482L174.6 705l334.7-193.2-51.6-29.8z" p-id="921" fill="#515151"></path></svg>