<?xml version="1.0" standalone="no"?><!DOCTYPE svg PUBLIC "-//W3C//DTD SVG 1.1//EN" "http://www.w3.org/Graphics/SVG/1.1/DTD/svg11.dtd"><svg t="1566362909325" class="icon" viewBox="0 0 1024 1024" version="1.1" xmlns="http://www.w3.org/2000/svg" p-id="6439" xmlns:xlink="http://www.w3.org/1999/xlink" width="200" height="200"><defs><style type="text/css"></style></defs><path d="M807.374 523.956c67.55 0 122.541 54.956 122.541 122.505 0 67.566-54.991 122.525-122.54 122.525-67.579 0-122.476-54.959-122.476-122.525-0.001-67.548 54.896-122.505 122.475-122.505m0-47.808c-94.061 0-170.297 76.24-170.297 170.313 0 94.062 76.236 170.33 170.297 170.33 94.126 0 170.33-76.268 170.33-170.33 0-94.073-76.204-170.313-170.33-170.313zM216.563 523.956c67.547 0 122.538 54.956 122.538 122.505 0 67.566-54.992 122.525-122.538 122.525-67.582 0-122.475-54.959-122.475-122.525 0-67.548 54.894-122.505 122.475-122.505m0-47.808c-94.061 0-170.268 76.24-170.268 170.313 0 94.062 76.207 170.33 170.268 170.33 94.124 0 170.298-76.268 170.298-170.33 0-94.073-76.174-170.313-170.298-170.313z" fill="#d4237a" p-id="6440"></path><path d="M565.15 672.5H216.563v-52.073h240.574L328.541 491.88l27.684-27.655H74.775l69.481-88.684h406.75l127.422-73.56 92.983 97.643L565.15 672.499z" fill="#d4237a" p-id="6441"></path><path d="M791.643 648.744L756.444 407.68 571.365 242.82l-72.495 21.643-9.131-30.555 89.557-26.7L786.35 391.587 823.17 644.13z" fill="#d4237a" p-id="6442"></path><path d="M766.34 412.246c-16.874 2.41-34.728-25.148-39.96-61.49-5.235-36.36 4.313-67.834 21.089-70.228 16.809-2.426 34.598 25.132 39.8 61.445 5.326 36.419-4.153 67.863-20.93 70.273z" fill="#d4237a" p-id="6443"></path></svg>