<?xml version="1.0" encoding="utf-8"?>
<!-- Svg Vector Icons : http://www.onlinewebfonts.com/icon -->
<!DOCTYPE svg PUBLIC "-//W3C//DTD SVG 1.1//EN" "http://www.w3.org/Graphics/SVG/1.1/DTD/svg11.dtd">
<svg version="1.1" xmlns="http://www.w3.org/2000/svg" xmlns:xlink="http://www.w3.org/1999/xlink" x="0px" y="0px" viewBox="0 0 1000 1000" enable-background="new 0 0 1000 1000" xml:space="preserve">
<metadata> Svg Vector Icons : http://www.onlinewebfonts.com/icon </metadata>
<g><g id="XMLID_105_"><path id="XMLID_112_" d="M957.4,597.1h-8.7l-1-3.7c-27-101.3-118.7-171.7-223.5-171.7H719l-21.6-97.1c-11.4-51.3-56.9-87.7-109.3-87.7h-74.9C306,236.9,123,371.6,61.4,569.3l-8.7,27.8H42.6c-18,0-32.6,14.6-32.6,32.6c0,18,14.6,32.6,32.6,32.6H69c-0.4-22.8,6-45.2,18.1-65.1c6.3-10.4,13.6-20.4,23-29.1c28-26.1,66.4-41.3,110.8-44.1c51.3-3.2,100,28,123.8,73.2c8.4,15.9,13.9,33.5,15,52.1c0.3,4.5-0.3,8.8-1.1,13h299.5c-0.4-22.8,6-45.2,18.1-65.1c6.3-10.4,13.6-20.4,23-29.1c28-26.1,66.4-41.3,110.8-44.1c50.9-3.2,99.8,28,123.7,73.2c8.5,15.9,13.9,33.5,15.1,52.1c0.3,4.5-0.3,8.8-1.1,13h9.8c18,0,32.6-14.6,32.6-32.6C990,611.7,975.4,597.1,957.4,597.1z M464.7,304.2c0-14.2,11.1-25.8,25.3-26.4c3.9-0.2,7.8-0.3,11.7-0.3h58.1c40.7,0,75.9,28.2,84.7,67.9l9.4,42.5c1.7,7.8-0.2,16-5.2,22.3c-5,6.2-12.6,9.9-20.6,9.9h-137c-14.6,0-26.4-11.8-26.4-26.4L464.7,304.2L464.7,304.2z M245.5,420.2c-6.2,0-11.8-3.7-14.2-9.3c-2.5-5.7-1.3-12.3,2.9-16.8c43.4-46.3,98.3-80.8,159.5-99.7c8-2.5,16.8-1,23.5,4c6.8,5,10.7,12.9,10.7,21.3v74.1c0,14.6-11.8,26.4-26.4,26.4L245.5,420.2L245.5,420.2z"/><path id="XMLID_109_" d="M343.5,650.2c-3.9-62.4-60.8-113.4-121.6-110c-40.7,2.5-75.5,16.2-100.8,39.7C96.2,603.1,83,634.6,85,666.2c1.1,17.3,15.4,30.5,32.5,30.5c0.7,0,1.4,0,2-0.1c3-0.2,5.7-1.3,8.4-2.3c1.5,5.4,3.4,10.6,5.8,15.6c15.1,31.3,46.9,53.1,84,53.1c40.7,0,75-26.2,87.9-62.5c1.7-4.9,3-9.9,3.9-15C327.2,684,344.6,667.8,343.5,650.2z M217.8,720.2c-27.9,0-50.6-22.7-50.6-50.6c0-27.9,22.6-50.6,50.6-50.6c27.9,0,50.6,22.7,50.6,50.6C268.4,697.5,245.7,720.2,217.8,720.2z"/><path id="XMLID_106_" d="M932.6,650.2c-3.9-62.4-60.9-113.4-121.5-110c-40.7,2.5-75.5,16.2-100.8,39.7c-24.9,23.2-38.1,54.7-36.1,86.3c1.1,17.3,15.4,30.5,32.5,30.5c0.7,0,1.4,0,2-0.1c3-0.2,5.7-1.3,8.4-2.3c1.5,5.4,3.4,10.6,5.8,15.6c15.1,31.3,46.9,53.1,84,53.1c40.7,0,75-26.2,87.9-62.5c1.7-4.8,3-9.8,3.9-14.9C916.4,684.2,933.7,667.9,932.6,650.2z M806.8,720.2c-27.9,0-50.6-22.7-50.6-50.6c0-27.9,22.7-50.6,50.6-50.6c28,0,50.6,22.7,50.6,50.6C857.4,697.5,834.8,720.2,806.8,720.2z"/></g><g></g><g></g><g></g><g></g><g></g><g></g><g></g><g></g><g></g><g></g><g></g><g></g><g></g><g></g><g></g></g>
</svg>